<svg width="320" height="256" viewBox="0 0 320 256" fill="none" xmlns="http://www.w3.org/2000/svg">
<rect x="127" width="105" height="109" fill="#1C19C6"/>
<path d="M281.266 69.662L259.875 221.921L182.408 185.583L281.266 69.662Z" fill="#B736F3"/>
<ellipse cx="4.56836" cy="4.56365" rx="4.56836" ry="4.56365" transform="matrix(0.679232 0.734066 -0.718438 0.695441 6.6249 109.509)" fill="#1C19C6"/>
<ellipse cx="4.56836" cy="4.56365" rx="4.56836" ry="4.56365" transform="matrix(0.679232 0.734066 -0.718438 0.695441 87.696 196.389)" fill="#1C19C6"/>
<ellipse cx="4.56836" cy="4.56365" rx="4.56836" ry="4.56365" transform="matrix(0.679232 0.734066 -0.718438 0.695441 79.5887 187.709)" fill="#1C19C6"/>
<ellipse cx="4.56836" cy="4.56365" rx="4.56836" ry="4.56365" transform="matrix(0.679232 0.734066 -0.718438 0.695441 71.4814 179.028)" fill="#1C19C6"/>
<ellipse cx="4.56836" cy="4.56365" rx="4.56836" ry="4.56365" transform="matrix(0.679232 0.734066 -0.718438 0.695441 63.3742 170.348)" fill="#1C19C6"/>
<ellipse cx="4.56836" cy="4.56365" rx="4.56836" ry="4.56365" transform="matrix(0.679232 0.734066 -0.718438 0.695441 55.2669 161.667)" fill="#1C19C6"/>
<ellipse cx="4.56836" cy="4.56365" rx="4.56836" ry="4.56365" transform="matrix(0.679232 0.734066 -0.718438 0.695441 47.1596 152.986)" fill="#1C19C6"/>
<ellipse cx="4.56836" cy="4.56365" rx="4.56836" ry="4.56365" transform="matrix(0.679232 0.734066 -0.718438 0.695441 39.0523 144.306)" fill="#1C19C6"/>
<ellipse cx="4.56836" cy="4.56365" rx="4.56836" ry="4.56365" transform="matrix(0.679232 0.734066 -0.718438 0.695441 30.9451 135.625)" fill="#1C19C6"/>
<ellipse cx="4.56836" cy="4.56365" rx="4.56836" ry="4.56365" transform="matrix(0.679232 0.734066 -0.718438 0.695441 22.8378 126.945)" fill="#1C19C6"/>
<ellipse cx="4.56836" cy="4.56365" rx="4.56836" ry="4.56365" transform="matrix(0.679232 0.734066 -0.718438 0.695441 14.7305 118.264)" fill="#1C19C6"/>
<ellipse cx="4.56836" cy="4.56365" rx="4.56836" ry="4.56365" transform="matrix(0.679233 0.734065 -0.718438 0.69544 32.7371 84.069)" fill="#1C19C6"/>
<ellipse cx="4.56836" cy="4.56365" rx="4.56836" ry="4.56365" transform="matrix(0.679232 0.734066 -0.718438 0.695441 113.808 170.949)" fill="#1C19C6"/>
<ellipse cx="4.56836" cy="4.56365" rx="4.56836" ry="4.56365" transform="matrix(0.679232 0.734066 -0.718438 0.695441 105.701 162.269)" fill="#1C19C6"/>
<ellipse cx="4.56836" cy="4.56365" rx="4.56836" ry="4.56365" transform="matrix(0.679232 0.734066 -0.718438 0.695441 97.5937 153.588)" fill="#1C19C6"/>
<ellipse cx="4.56836" cy="4.56365" rx="4.56836" ry="4.56365" transform="matrix(0.679232 0.734066 -0.718438 0.695441 89.4865 144.908)" fill="#1C19C6"/>
<ellipse cx="4.56836" cy="4.56365" rx="4.56836" ry="4.56365" transform="matrix(0.679232 0.734066 -0.718438 0.695441 81.3792 136.227)" fill="#1C19C6"/>
<ellipse cx="4.56836" cy="4.56365" rx="4.56836" ry="4.56365" transform="matrix(0.679232 0.734066 -0.718438 0.695441 73.2719 127.546)" fill="#1C19C6"/>
<ellipse cx="4.56836" cy="4.56365" rx="4.56836" ry="4.56365" transform="matrix(0.679232 0.734066 -0.718438 0.695441 65.1646 118.866)" fill="#1C19C6"/>
<ellipse cx="4.56836" cy="4.56365" rx="4.56836" ry="4.56365" transform="matrix(0.679232 0.734066 -0.718438 0.695441 57.0574 110.185)" fill="#1C19C6"/>
<ellipse cx="4.56836" cy="4.56365" rx="4.56836" ry="4.56365" transform="matrix(0.679232 0.734066 -0.718438 0.695441 48.9501 101.505)" fill="#1C19C6"/>
<ellipse cx="4.56836" cy="4.56365" rx="4.56836" ry="4.56365" transform="matrix(0.679232 0.734066 -0.718438 0.695441 40.8428 92.824)" fill="#1C19C6"/>
<ellipse cx="4.56836" cy="4.56365" rx="4.56836" ry="4.56365" transform="matrix(0.679232 0.734066 -0.718438 0.695441 23.5973 92.9991)" fill="#1C19C6"/>
<ellipse cx="4.56836" cy="4.56365" rx="4.56836" ry="4.56365" transform="matrix(0.679232 0.734066 -0.718438 0.695441 15.1103 101.291)" fill="#1C19C6"/>
<ellipse cx="4.56836" cy="4.56365" rx="4.56836" ry="4.56365" transform="matrix(0.679232 0.734066 -0.718438 0.695441 104.67 179.805)" fill="#1C19C6"/>
<ellipse cx="4.56836" cy="4.56365" rx="4.56836" ry="4.56365" transform="matrix(0.679232 0.734066 -0.718438 0.695441 96.183 188.097)" fill="#1C19C6"/>
<ellipse cx="4.56836" cy="4.56365" rx="4.56836" ry="4.56365" transform="matrix(0.679232 0.734066 -0.718438 0.695441 96.5628 171.124)" fill="#1C19C6"/>
<ellipse cx="4.56836" cy="4.56365" rx="4.56836" ry="4.56365" transform="matrix(0.679232 0.734066 -0.718438 0.695441 88.0757 179.417)" fill="#1C19C6"/>
<ellipse cx="4.56836" cy="4.56365" rx="4.56836" ry="4.56365" transform="matrix(0.679232 0.734066 -0.718438 0.695441 88.4555 162.444)" fill="#1C19C6"/>
<ellipse cx="4.56836" cy="4.56365" rx="4.56836" ry="4.56365" transform="matrix(0.679232 0.734066 -0.718438 0.695441 79.9685 170.736)" fill="#1C19C6"/>
<ellipse cx="4.56836" cy="4.56365" rx="4.56836" ry="4.56365" transform="matrix(0.679232 0.734066 -0.718438 0.695441 80.3482 153.763)" fill="#1C19C6"/>
<ellipse cx="4.56836" cy="4.56365" rx="4.56836" ry="4.56365" transform="matrix(0.679232 0.734066 -0.718438 0.695441 71.8612 162.055)" fill="#1C19C6"/>
<ellipse cx="4.56836" cy="4.56365" rx="4.56836" ry="4.56365" transform="matrix(0.679232 0.734066 -0.718438 0.695441 72.241 145.083)" fill="#1C19C6"/>
<ellipse cx="4.56836" cy="4.56365" rx="4.56836" ry="4.56365" transform="matrix(0.679232 0.734066 -0.718438 0.695441 63.7539 153.375)" fill="#1C19C6"/>
<ellipse cx="4.56836" cy="4.56365" rx="4.56836" ry="4.56365" transform="matrix(0.679232 0.734066 -0.718438 0.695441 64.1337 136.402)" fill="#1C19C6"/>
<ellipse cx="4.56836" cy="4.56365" rx="4.56836" ry="4.56365" transform="matrix(0.679232 0.734066 -0.718438 0.695441 55.6466 144.694)" fill="#1C19C6"/>
<ellipse cx="4.56836" cy="4.56365" rx="4.56836" ry="4.56365" transform="matrix(0.679232 0.734066 -0.718438 0.695441 56.0264 127.721)" fill="#1C19C6"/>
<ellipse cx="4.56836" cy="4.56365" rx="4.56836" ry="4.56365" transform="matrix(0.679232 0.734066 -0.718438 0.695441 47.5394 136.014)" fill="#1C19C6"/>
<ellipse cx="4.56836" cy="4.56365" rx="4.56836" ry="4.56365" transform="matrix(0.679232 0.734066 -0.718438 0.695441 47.9191 119.041)" fill="#1C19C6"/>
<ellipse cx="4.56836" cy="4.56365" rx="4.56836" ry="4.56365" transform="matrix(0.679232 0.734066 -0.718438 0.695441 39.4321 127.333)" fill="#1C19C6"/>
<ellipse cx="4.56836" cy="4.56365" rx="4.56836" ry="4.56365" transform="matrix(0.679232 0.734066 -0.718438 0.695441 39.8119 110.36)" fill="#1C19C6"/>
<ellipse cx="4.56836" cy="4.56365" rx="4.56836" ry="4.56365" transform="matrix(0.679232 0.734066 -0.718438 0.695441 31.3248 118.652)" fill="#1C19C6"/>
<ellipse cx="4.56836" cy="4.56365" rx="4.56836" ry="4.56365" transform="matrix(0.679232 0.734066 -0.718438 0.695441 31.7046 101.68)" fill="#1C19C6"/>
<ellipse cx="4.56836" cy="4.56365" rx="4.56836" ry="4.56365" transform="matrix(0.679232 0.734066 -0.718438 0.695441 23.2176 109.972)" fill="#1C19C6"/>
<rect x="100" y="12" width="105" height="109" fill="#F262E4"/>
<ellipse cx="145.5" cy="171" rx="58.5" ry="60" fill="#B736F3"/>
<path d="M268.376 56.2331L246.985 208.492L169.518 172.154L268.376 56.2331Z" fill="#F7F032"/>
</svg>
