<svg width="330" height="278" viewBox="0 0 330 278" fill="none" xmlns="http://www.w3.org/2000/svg">
<rect width="323" height="276" fill="#89F7FE"/>
<rect x="137" y="22" width="105" height="109" fill="#1C19C6"/>
<path d="M291.266 91.6621L269.875 243.921L192.408 207.583L291.266 91.6621Z" fill="#B736F3"/>
<ellipse cx="4.56836" cy="4.56365" rx="4.56836" ry="4.56365" transform="matrix(0.679232 0.734066 -0.718438 0.695441 16.6249 131.509)" fill="#1C19C6"/>
<ellipse cx="4.56836" cy="4.56365" rx="4.56836" ry="4.56365" transform="matrix(0.679232 0.734066 -0.718438 0.695441 97.696 218.389)" fill="#1C19C6"/>
<ellipse cx="4.56836" cy="4.56365" rx="4.56836" ry="4.56365" transform="matrix(0.679232 0.734066 -0.718438 0.695441 89.5887 209.709)" fill="#1C19C6"/>
<ellipse cx="4.56836" cy="4.56365" rx="4.56836" ry="4.56365" transform="matrix(0.679232 0.734066 -0.718438 0.695441 81.4814 201.028)" fill="#1C19C6"/>
<ellipse cx="4.56836" cy="4.56365" rx="4.56836" ry="4.56365" transform="matrix(0.679232 0.734066 -0.718438 0.695441 73.3742 192.348)" fill="#1C19C6"/>
<ellipse cx="4.56836" cy="4.56365" rx="4.56836" ry="4.56365" transform="matrix(0.679232 0.734066 -0.718438 0.695441 65.2669 183.667)" fill="#1C19C6"/>
<ellipse cx="4.56836" cy="4.56365" rx="4.56836" ry="4.56365" transform="matrix(0.679232 0.734066 -0.718438 0.695441 57.1596 174.986)" fill="#1C19C6"/>
<ellipse cx="4.56836" cy="4.56365" rx="4.56836" ry="4.56365" transform="matrix(0.679232 0.734066 -0.718438 0.695441 49.0523 166.306)" fill="#1C19C6"/>
<ellipse cx="4.56836" cy="4.56365" rx="4.56836" ry="4.56365" transform="matrix(0.679232 0.734066 -0.718438 0.695441 40.9451 157.625)" fill="#1C19C6"/>
<ellipse cx="4.56836" cy="4.56365" rx="4.56836" ry="4.56365" transform="matrix(0.679232 0.734066 -0.718438 0.695441 32.8378 148.945)" fill="#1C19C6"/>
<ellipse cx="4.56836" cy="4.56365" rx="4.56836" ry="4.56365" transform="matrix(0.679232 0.734066 -0.718438 0.695441 24.7305 140.264)" fill="#1C19C6"/>
<ellipse cx="4.56836" cy="4.56365" rx="4.56836" ry="4.56365" transform="matrix(0.679233 0.734065 -0.718438 0.69544 42.7371 106.069)" fill="#1C19C6"/>
<ellipse cx="4.56836" cy="4.56365" rx="4.56836" ry="4.56365" transform="matrix(0.679232 0.734066 -0.718438 0.695441 123.808 192.949)" fill="#1C19C6"/>
<ellipse cx="4.56836" cy="4.56365" rx="4.56836" ry="4.56365" transform="matrix(0.679232 0.734066 -0.718438 0.695441 115.701 184.269)" fill="#1C19C6"/>
<ellipse cx="4.56836" cy="4.56365" rx="4.56836" ry="4.56365" transform="matrix(0.679232 0.734066 -0.718438 0.695441 107.594 175.588)" fill="#1C19C6"/>
<ellipse cx="4.56836" cy="4.56365" rx="4.56836" ry="4.56365" transform="matrix(0.679232 0.734066 -0.718438 0.695441 99.4865 166.908)" fill="#1C19C6"/>
<ellipse cx="4.56836" cy="4.56365" rx="4.56836" ry="4.56365" transform="matrix(0.679232 0.734066 -0.718438 0.695441 91.3792 158.227)" fill="#1C19C6"/>
<ellipse cx="4.56836" cy="4.56365" rx="4.56836" ry="4.56365" transform="matrix(0.679232 0.734066 -0.718438 0.695441 83.2719 149.546)" fill="#1C19C6"/>
<ellipse cx="4.56836" cy="4.56365" rx="4.56836" ry="4.56365" transform="matrix(0.679232 0.734066 -0.718438 0.695441 75.1646 140.866)" fill="#1C19C6"/>
<ellipse cx="4.56836" cy="4.56365" rx="4.56836" ry="4.56365" transform="matrix(0.679232 0.734066 -0.718438 0.695441 67.0574 132.185)" fill="#1C19C6"/>
<ellipse cx="4.56836" cy="4.56365" rx="4.56836" ry="4.56365" transform="matrix(0.679232 0.734066 -0.718438 0.695441 58.9501 123.505)" fill="#1C19C6"/>
<ellipse cx="4.56836" cy="4.56365" rx="4.56836" ry="4.56365" transform="matrix(0.679232 0.734066 -0.718438 0.695441 50.8428 114.824)" fill="#1C19C6"/>
<ellipse cx="4.56836" cy="4.56365" rx="4.56836" ry="4.56365" transform="matrix(0.679232 0.734066 -0.718438 0.695441 33.5973 114.999)" fill="#1C19C6"/>
<ellipse cx="4.56836" cy="4.56365" rx="4.56836" ry="4.56365" transform="matrix(0.679232 0.734066 -0.718438 0.695441 25.1103 123.291)" fill="#1C19C6"/>
<ellipse cx="4.56836" cy="4.56365" rx="4.56836" ry="4.56365" transform="matrix(0.679232 0.734066 -0.718438 0.695441 114.67 201.805)" fill="#1C19C6"/>
<ellipse cx="4.56836" cy="4.56365" rx="4.56836" ry="4.56365" transform="matrix(0.679232 0.734066 -0.718438 0.695441 106.183 210.097)" fill="#1C19C6"/>
<ellipse cx="4.56836" cy="4.56365" rx="4.56836" ry="4.56365" transform="matrix(0.679232 0.734066 -0.718438 0.695441 106.563 193.124)" fill="#1C19C6"/>
<ellipse cx="4.56836" cy="4.56365" rx="4.56836" ry="4.56365" transform="matrix(0.679232 0.734066 -0.718438 0.695441 98.0757 201.417)" fill="#1C19C6"/>
<ellipse cx="4.56836" cy="4.56365" rx="4.56836" ry="4.56365" transform="matrix(0.679232 0.734066 -0.718438 0.695441 98.4555 184.444)" fill="#1C19C6"/>
<ellipse cx="4.56836" cy="4.56365" rx="4.56836" ry="4.56365" transform="matrix(0.679232 0.734066 -0.718438 0.695441 89.9685 192.736)" fill="#1C19C6"/>
<ellipse cx="4.56836" cy="4.56365" rx="4.56836" ry="4.56365" transform="matrix(0.679232 0.734066 -0.718438 0.695441 90.3482 175.763)" fill="#1C19C6"/>
<ellipse cx="4.56836" cy="4.56365" rx="4.56836" ry="4.56365" transform="matrix(0.679232 0.734066 -0.718438 0.695441 81.8612 184.055)" fill="#1C19C6"/>
<ellipse cx="4.56836" cy="4.56365" rx="4.56836" ry="4.56365" transform="matrix(0.679232 0.734066 -0.718438 0.695441 82.241 167.083)" fill="#1C19C6"/>
<ellipse cx="4.56836" cy="4.56365" rx="4.56836" ry="4.56365" transform="matrix(0.679232 0.734066 -0.718438 0.695441 73.7539 175.375)" fill="#1C19C6"/>
<ellipse cx="4.56836" cy="4.56365" rx="4.56836" ry="4.56365" transform="matrix(0.679232 0.734066 -0.718438 0.695441 74.1337 158.402)" fill="#1C19C6"/>
<ellipse cx="4.56836" cy="4.56365" rx="4.56836" ry="4.56365" transform="matrix(0.679232 0.734066 -0.718438 0.695441 65.6467 166.694)" fill="#1C19C6"/>
<ellipse cx="4.56836" cy="4.56365" rx="4.56836" ry="4.56365" transform="matrix(0.679232 0.734066 -0.718438 0.695441 66.0264 149.721)" fill="#1C19C6"/>
<ellipse cx="4.56836" cy="4.56365" rx="4.56836" ry="4.56365" transform="matrix(0.679232 0.734066 -0.718438 0.695441 57.5394 158.014)" fill="#1C19C6"/>
<ellipse cx="4.56836" cy="4.56365" rx="4.56836" ry="4.56365" transform="matrix(0.679232 0.734066 -0.718438 0.695441 57.9191 141.041)" fill="#1C19C6"/>
<ellipse cx="4.56836" cy="4.56365" rx="4.56836" ry="4.56365" transform="matrix(0.679232 0.734066 -0.718438 0.695441 49.4321 149.333)" fill="#1C19C6"/>
<ellipse cx="4.56836" cy="4.56365" rx="4.56836" ry="4.56365" transform="matrix(0.679232 0.734066 -0.718438 0.695441 49.8119 132.36)" fill="#1C19C6"/>
<ellipse cx="4.56836" cy="4.56365" rx="4.56836" ry="4.56365" transform="matrix(0.679232 0.734066 -0.718438 0.695441 41.3248 140.652)" fill="#1C19C6"/>
<ellipse cx="4.56836" cy="4.56365" rx="4.56836" ry="4.56365" transform="matrix(0.679232 0.734066 -0.718438 0.695441 41.7046 123.68)" fill="#1C19C6"/>
<ellipse cx="4.56836" cy="4.56365" rx="4.56836" ry="4.56365" transform="matrix(0.679232 0.734066 -0.718438 0.695441 33.2176 131.972)" fill="#1C19C6"/>
<rect x="110" y="34" width="105" height="109" fill="#F262E4"/>
<ellipse cx="155.5" cy="193" rx="58.5" ry="60" fill="#B736F3"/>
<path d="M278.376 78.2331L256.985 230.492L179.518 194.154L278.376 78.2331Z" fill="#F7F032"/>
</svg>
